<svg version="1.1" id="Layer_1" xmlns="http://www.w3.org/2000/svg" xmlns:xlink="http://www.w3.org/1999/xlink" x="0px" y="0px"
	 width="100" height="100" viewBox="100 80 300 300" enable-background="new 205 180 1000 1000" xml:space="preserve">
<path fill="#000000" opacity="1.000000" stroke="none" 
	d="
M218.278870,203.408844 
	C220.547226,197.098938 222.671631,191.151672 224.775681,185.197189 
	C225.549133,183.008270 226.608093,181.496231 229.380524,181.620850 
	C231.769653,181.728226 232.943573,182.730133 233.741302,184.866516 
	C240.077927,201.836685 246.487793,218.779495 252.848328,235.740768 
	C253.064148,236.316269 252.996262,236.998169 253.055710,237.582382 
	C245.710587,240.283218 242.403198,238.930374 239.887238,232.328445 
	C239.176666,230.463898 238.421127,228.610321 237.835602,226.705780 
	C237.080200,224.248535 235.477509,223.332748 232.973389,223.376038 
	C227.815765,223.465195 222.653595,223.492554 217.497177,223.375168 
	C214.464417,223.306107 213.086655,224.812698 212.125931,227.506668 
	C210.887070,230.980530 210.410172,234.869415 207.699188,237.670334 
	C207.254303,237.511337 206.809418,237.352341 206.364532,237.193344 
	C210.285309,226.051773 214.206085,214.910202 218.278870,203.408844 
M217.353271,212.662750 
	C216.478363,215.132675 215.286911,217.524597 215.361603,220.664062 
	C221.838287,220.664062 228.196274,220.664062 235.512711,220.664062 
	C231.973679,210.720184 228.655426,201.396667 224.920639,190.902756 
	C222.182327,198.785416 219.899078,205.358078 217.353271,212.662750 
z"/>
<path fill="#000000" opacity="1.000000" stroke="none" 
	d="
M252.287415,295.337646 
	C250.919510,295.231689 249.954773,295.120483 248.990036,295.009277 
	C260.619141,292.367310 260.851685,283.500183 260.679932,274.341980 
	C260.589386,269.514252 260.857239,264.675049 260.637421,259.855835 
	C260.414307,254.963486 263.731812,255.682312 266.670868,255.664444 
	C269.495148,255.647278 272.548767,255.136169 272.376465,259.675842 
	C272.174469,264.997986 272.522583,270.345154 272.224335,275.658630 
	C271.533844,287.960327 265.734924,293.680450 252.287415,295.337646 
z"/>
<path fill="#000000" opacity="1.000000" stroke="none" 
	d="
M264.043335,209.624817 
	C269.311127,209.623260 274.088715,209.623260 280.264618,209.623260 
	C276.970856,211.900177 273.321198,211.535995 272.730011,214.695175 
	C272.248230,217.269394 272.369446,219.966644 272.329529,222.610962 
	C272.269409,226.590942 272.195648,230.575729 272.322815,234.552231 
	C272.470215,239.160583 269.186462,238.368271 266.493713,238.363098 
	C263.800446,238.357925 260.530304,239.136368 260.654938,234.540054 
	C260.780762,229.899353 260.520050,225.246170 260.706909,220.609650 
	C260.911102,215.542114 260.383423,211.171982 253.377411,210.925995 
	C253.592606,210.492783 253.807800,210.059570 254.022995,209.626358 
	C257.199707,209.626358 260.376434,209.626358 264.043335,209.624817 
z"/>
<path fill="#000000" opacity="1.000000" stroke="none" 
	d="
M257.957092,251.270142 
	C249.569489,251.281403 241.642181,251.716949 233.787262,251.150024 
	C230.449036,250.909073 227.332260,249.682632 223.920395,251.134705 
	C222.584061,251.703445 221.086731,250.448730 219.862137,249.584442 
	C218.575760,248.676575 217.485672,247.465332 218.230499,245.821472 
	C218.915756,244.309052 220.617935,244.465851 221.740875,244.963699 
	C225.734573,246.734238 228.662354,246.154343 230.122864,241.126221 
	C232.097748,243.353928 230.679245,245.771240 231.795547,247.621353 
	C233.815094,247.900314 233.160751,244.969757 235.012848,245.022598 
	C237.130890,244.962540 235.500473,247.698166 237.193298,248.149323 
	C239.151672,247.956421 238.814362,245.372742 240.654617,244.821838 
	C242.270508,245.695450 240.459061,247.778915 242.715057,249.153915 
	C245.687775,250.625275 249.501022,246.851791 253.297470,248.687515 
	C255.170776,247.922775 254.076584,245.011414 256.366028,244.493729 
	C258.031555,245.296509 256.534180,247.492920 258.593292,248.495529 
	C260.289062,248.096008 262.517426,247.890930 264.191803,249.133087 
	C266.608673,248.219940 266.048248,245.244690 268.593231,244.529236 
	C269.345764,246.598618 269.056885,249.115494 271.981598,250.794052 
	C266.878906,251.980530 262.614899,250.740768 257.957092,251.270142 
z"/>
<path fill="#000000" opacity="1.000000" stroke="none" 
	d="
M287.280396,251.212250 
	C282.785858,251.681976 279.513733,250.504105 277.629089,246.453049 
	C278.800171,245.342133 280.066284,244.756317 281.868073,244.871704 
	C282.119781,246.257599 282.373291,247.653549 282.628296,249.057617 
	C285.114594,249.618744 288.071136,246.573502 289.685760,250.413132 
	C289.341919,251.422577 288.385925,251.050583 287.280396,251.212250 
z"/>
</svg>